/* XPM */
static const char *fw[] = {
/* width height num_colors chars_per_pixel */
"    32    32       23            1",
/* colors */
". c #000000",
"# c #ffffff",
"a c #dfdfdf",
"b c #efefef",
"c c #ff0000",
"d c #100000",
"e c #001000",
"f c #ff9a00",
"g c #ef0000",
"h c #200000",
"i c #ffcfcf",
"j c #ff3000",
"k c #ff6500",
"l c #ff3030",
"m c #650000",
"n c #303000",
"o c #cf6500",
"p c #cf9a00",
"q c #ff9a65",
"r c #ff9a9a",
"s c #306500",
"t c #ff6565",
"u c #9a9a00",
/* pixels */
"################################",
"################################",
"###################rrttra#######",
"################btccckjccta#####",
"###############rccccjkfkccci####",
"##############tccccjjkfkjccca###",
"############blccccjjfpnpkjccl###",
"###########blcccjjjkkn.skjjjct##",
"##########iccccjkfffpmeupfkkkc##",
"#########rccjjjjfssh....dnoufcq#",
"#######rlcjcjcjkfm........eskjc#",
"####itlckjjkjkkfn..........nkjci",
"##rlcccjkfffkkkud...........ukct",
"#tcccjjjkfsmspfm............ukcl",
"rccccjjkfu....ud............ujcl",
"jcjjjkkfp.....n............dkjcc",
"gjokokpsd..................ukccc",
"lcjjjjkfpd....n............dojcc",
"rcccjjjkfue...pd............ujcl",
"#tccccjjkfusspks............ujcl",
"##ilcccjkfkfkkku............ukcr",
"####arlckjjjjkkfm..........nfjci",
"#######ilcjjcjjkfs........dskjc#",
"#########rccjcjjkuun....dnpofcr#",
"##########ilcccjkfkfpmeuffkkjjb#",
"###########blcccjjjkfn.skjjccr##",
"#############tccccjjkpmfkcccl###",
"##############rccccjjkfkjccjb###",
"###############rlcccjkfkccli####",
"#################rlcckjcctb#####",
"###################irtrr########",
"################################"
};
